<mxfile host="65bd71144e">
    <diagram id="tJj5FMBHRleLXUl1oI_O" name="第 1 页">
        <mxGraphModel dx="917" dy="766" grid="1" gridSize="10" guides="1" tooltips="1" connect="1" arrows="1" fold="1" page="1" pageScale="1" pageWidth="827" pageHeight="1169" math="0" shadow="0">
            <root>
                <mxCell id="0"/>
                <mxCell id="1" parent="0"/>
                <mxCell id="2" value="" style="rounded=0;whiteSpace=wrap;html=1;" vertex="1" parent="1">
                    <mxGeometry x="140" y="100" width="510" height="620" as="geometry"/>
                </mxCell>
                <mxCell id="3" value="注册或登录" style="ellipse;whiteSpace=wrap;html=1;" vertex="1" parent="1">
                    <mxGeometry x="210" y="340" width="100" height="50" as="geometry"/>
                </mxCell>
                <mxCell id="10" style="edgeStyle=none;html=1;exitX=0.5;exitY=0.5;exitDx=0;exitDy=0;exitPerimeter=0;entryX=0;entryY=0.5;entryDx=0;entryDy=0;" edge="1" parent="1" source="4" target="3">
                    <mxGeometry relative="1" as="geometry"/>
                </mxCell>
                <mxCell id="26" style="edgeStyle=none;html=1;exitX=0.5;exitY=0.5;exitDx=0;exitDy=0;exitPerimeter=0;" edge="1" parent="1" source="4" target="17">
                    <mxGeometry relative="1" as="geometry"/>
                </mxCell>
                <mxCell id="30" style="edgeStyle=none;html=1;exitX=0.5;exitY=0.5;exitDx=0;exitDy=0;exitPerimeter=0;" edge="1" parent="1" source="4" target="29">
                    <mxGeometry relative="1" as="geometry"/>
                </mxCell>
                <mxCell id="31" style="edgeStyle=none;html=1;exitX=0.5;exitY=0.5;exitDx=0;exitDy=0;exitPerimeter=0;entryX=0;entryY=0.5;entryDx=0;entryDy=0;" edge="1" parent="1" source="4" target="16">
                    <mxGeometry relative="1" as="geometry"/>
                </mxCell>
                <mxCell id="45" style="edgeStyle=none;html=1;exitX=0.5;exitY=0.5;exitDx=0;exitDy=0;exitPerimeter=0;entryX=0;entryY=0.5;entryDx=0;entryDy=0;" edge="1" parent="1" source="4" target="42">
                    <mxGeometry relative="1" as="geometry"/>
                </mxCell>
                <mxCell id="4" value="低级用户" style="shape=umlActor;verticalLabelPosition=bottom;verticalAlign=top;html=1;outlineConnect=0;" vertex="1" parent="1">
                    <mxGeometry x="70" y="200" width="30" height="60" as="geometry"/>
                </mxCell>
                <mxCell id="11" style="edgeStyle=none;html=1;exitX=0.5;exitY=0.5;exitDx=0;exitDy=0;exitPerimeter=0;entryX=0;entryY=0.5;entryDx=0;entryDy=0;" edge="1" parent="1" source="5" target="3">
                    <mxGeometry relative="1" as="geometry">
                        <mxPoint x="220" y="370" as="targetPoint"/>
                    </mxGeometry>
                </mxCell>
                <mxCell id="27" style="edgeStyle=none;html=1;exitX=0.5;exitY=0.5;exitDx=0;exitDy=0;exitPerimeter=0;entryX=0;entryY=1;entryDx=0;entryDy=0;" edge="1" parent="1" source="5" target="17">
                    <mxGeometry relative="1" as="geometry"/>
                </mxCell>
                <mxCell id="36" style="edgeStyle=none;html=1;exitX=0.5;exitY=0.5;exitDx=0;exitDy=0;exitPerimeter=0;entryX=0;entryY=0.5;entryDx=0;entryDy=0;" edge="1" parent="1" source="5" target="28">
                    <mxGeometry relative="1" as="geometry"/>
                </mxCell>
                <mxCell id="39" style="edgeStyle=none;html=1;exitX=0.5;exitY=0.5;exitDx=0;exitDy=0;exitPerimeter=0;" edge="1" parent="1" source="5" target="37">
                    <mxGeometry relative="1" as="geometry"/>
                </mxCell>
                <mxCell id="44" style="edgeStyle=none;html=1;exitX=0.5;exitY=0.5;exitDx=0;exitDy=0;exitPerimeter=0;" edge="1" parent="1" source="5" target="43">
                    <mxGeometry relative="1" as="geometry"/>
                </mxCell>
                <mxCell id="5" value="高级用户" style="shape=umlActor;verticalLabelPosition=bottom;verticalAlign=top;html=1;outlineConnect=0;" vertex="1" parent="1">
                    <mxGeometry x="70" y="465" width="30" height="60" as="geometry"/>
                </mxCell>
                <mxCell id="22" style="edgeStyle=none;html=1;exitX=0.5;exitY=0.5;exitDx=0;exitDy=0;exitPerimeter=0;entryX=1;entryY=0.5;entryDx=0;entryDy=0;" edge="1" parent="1" source="6" target="21">
                    <mxGeometry relative="1" as="geometry"/>
                </mxCell>
                <mxCell id="51" style="edgeStyle=none;html=1;exitX=0.5;exitY=0.5;exitDx=0;exitDy=0;exitPerimeter=0;entryX=1;entryY=0.5;entryDx=0;entryDy=0;" edge="1" parent="1" source="6" target="50">
                    <mxGeometry relative="1" as="geometry"/>
                </mxCell>
                <mxCell id="6" value="管理员" style="shape=umlActor;verticalLabelPosition=bottom;verticalAlign=top;html=1;outlineConnect=0;" vertex="1" parent="1">
                    <mxGeometry x="680" y="205" width="30" height="60" as="geometry"/>
                </mxCell>
                <mxCell id="9" value="非对称OA工单提交处置系统" style="text;html=1;align=center;verticalAlign=middle;resizable=0;points=[];autosize=1;strokeColor=none;fillColor=none;fontSize=16;fontStyle=1" vertex="1" parent="1">
                    <mxGeometry x="285" y="60" width="220" height="30" as="geometry"/>
                </mxCell>
                <mxCell id="15" value="&amp;lt;&amp;lt;include&amp;gt;&amp;gt;" style="edgeStyle=none;html=1;exitX=0;exitY=0.5;exitDx=0;exitDy=0;entryX=1;entryY=0.5;entryDx=0;entryDy=0;dashed=1;endArrow=none;endFill=0;startArrow=classic;startFill=1;" edge="1" parent="1" source="12" target="3">
                    <mxGeometry relative="1" as="geometry"/>
                </mxCell>
                <mxCell id="12" value="用户组验证" style="ellipse;whiteSpace=wrap;html=1;" vertex="1" parent="1">
                    <mxGeometry x="430" y="340" width="100" height="50" as="geometry"/>
                </mxCell>
                <mxCell id="16" value="提交工单" style="ellipse;whiteSpace=wrap;html=1;" vertex="1" parent="1">
                    <mxGeometry x="210" y="130" width="100" height="50" as="geometry"/>
                </mxCell>
                <mxCell id="17" value="查看共享信息" style="ellipse;whiteSpace=wrap;html=1;" vertex="1" parent="1">
                    <mxGeometry x="210" y="200" width="100" height="50" as="geometry"/>
                </mxCell>
                <mxCell id="21" value="管理用户权限" style="ellipse;whiteSpace=wrap;html=1;" vertex="1" parent="1">
                    <mxGeometry x="500" y="210" width="100" height="50" as="geometry"/>
                </mxCell>
                <mxCell id="28" value="审批反馈工单" style="ellipse;whiteSpace=wrap;html=1;" vertex="1" parent="1">
                    <mxGeometry x="210" y="650" width="100" height="50" as="geometry"/>
                </mxCell>
                <mxCell id="29" value="查看工单反馈" style="ellipse;whiteSpace=wrap;html=1;" vertex="1" parent="1">
                    <mxGeometry x="210" y="270" width="100" height="50" as="geometry"/>
                </mxCell>
                <mxCell id="33" value="&amp;lt;&amp;lt;include&amp;gt;&amp;gt;" style="edgeStyle=none;html=1;exitX=0;exitY=0;exitDx=0;exitDy=0;entryX=1;entryY=0.5;entryDx=0;entryDy=0;dashed=1;endArrow=none;endFill=0;startArrow=classic;startFill=1;" edge="1" parent="1" source="12" target="29">
                    <mxGeometry relative="1" as="geometry">
                        <mxPoint x="415" y="375" as="sourcePoint"/>
                        <mxPoint x="320" y="375" as="targetPoint"/>
                    </mxGeometry>
                </mxCell>
                <mxCell id="34" value="&amp;lt;&amp;lt;include&amp;gt;&amp;gt;" style="edgeStyle=none;html=1;entryX=1;entryY=0.5;entryDx=0;entryDy=0;dashed=1;endArrow=none;endFill=0;startArrow=classic;startFill=1;exitX=0.5;exitY=0;exitDx=0;exitDy=0;" edge="1" parent="1" source="12" target="16">
                    <mxGeometry relative="1" as="geometry">
                        <mxPoint x="424" y="362" as="sourcePoint"/>
                        <mxPoint x="320" y="305" as="targetPoint"/>
                    </mxGeometry>
                </mxCell>
                <mxCell id="35" value="&amp;lt;&amp;lt;include&amp;gt;&amp;gt;" style="edgeStyle=none;html=1;entryX=0.983;entryY=0.367;entryDx=0;entryDy=0;dashed=1;endArrow=none;endFill=0;startArrow=classic;startFill=1;entryPerimeter=0;exitX=0.243;exitY=0.927;exitDx=0;exitDy=0;exitPerimeter=0;" edge="1" parent="1" source="12" target="37">
                    <mxGeometry relative="1" as="geometry">
                        <mxPoint x="432" y="374" as="sourcePoint"/>
                        <mxPoint x="320" y="375" as="targetPoint"/>
                    </mxGeometry>
                </mxCell>
                <mxCell id="37" value="发布共享信息" style="ellipse;whiteSpace=wrap;html=1;" vertex="1" parent="1">
                    <mxGeometry x="210" y="590" width="100" height="50" as="geometry"/>
                </mxCell>
                <mxCell id="41" value="&amp;lt;&amp;lt;include&lt;span style=&quot;background-color: light-dark(#ffffff, var(--ge-dark-color, #121212));&quot;&gt;&amp;gt;&amp;gt;&lt;/span&gt;" style="edgeStyle=none;html=1;exitX=0.5;exitY=1;exitDx=0;exitDy=0;entryX=1;entryY=0.5;entryDx=0;entryDy=0;dashed=1;endArrow=none;endFill=0;startArrow=classic;startFill=1;" edge="1" parent="1" source="12" target="28">
                    <mxGeometry x="0.0004" relative="1" as="geometry">
                        <mxPoint x="425" y="385" as="sourcePoint"/>
                        <mxPoint x="318" y="498" as="targetPoint"/>
                        <mxPoint as="offset"/>
                    </mxGeometry>
                </mxCell>
                <mxCell id="42" value="查看非对称信息" style="ellipse;whiteSpace=wrap;html=1;" vertex="1" parent="1">
                    <mxGeometry x="210" y="410" width="100" height="50" as="geometry"/>
                </mxCell>
                <mxCell id="43" value="发布非对称信息" style="ellipse;whiteSpace=wrap;html=1;" vertex="1" parent="1">
                    <mxGeometry x="210" y="475" width="100" height="50" as="geometry"/>
                </mxCell>
                <mxCell id="48" value="&amp;lt;&amp;lt;include&amp;gt;&amp;gt;" style="edgeStyle=none;html=1;exitX=0;exitY=0.5;exitDx=0;exitDy=0;entryX=1;entryY=0.5;entryDx=0;entryDy=0;dashed=1;endArrow=none;endFill=0;startArrow=classic;startFill=1;" edge="1" parent="1" target="42">
                    <mxGeometry relative="1" as="geometry">
                        <mxPoint x="440" y="375" as="sourcePoint"/>
                        <mxPoint x="320" y="375" as="targetPoint"/>
                    </mxGeometry>
                </mxCell>
                <mxCell id="49" value="&amp;lt;&amp;lt;include&amp;gt;&amp;gt;" style="edgeStyle=none;html=1;exitX=0;exitY=1;exitDx=0;exitDy=0;entryX=1;entryY=0.5;entryDx=0;entryDy=0;dashed=1;endArrow=none;endFill=0;startArrow=classic;startFill=1;" edge="1" parent="1" source="12" target="43">
                    <mxGeometry relative="1" as="geometry">
                        <mxPoint x="450" y="385" as="sourcePoint"/>
                        <mxPoint x="320" y="445" as="targetPoint"/>
                    </mxGeometry>
                </mxCell>
                <mxCell id="53" value="&amp;lt;&amp;lt;extends&amp;gt;&amp;gt;" style="edgeStyle=none;html=1;exitX=0;exitY=0.5;exitDx=0;exitDy=0;dashed=1;" edge="1" parent="1" source="50" target="16">
                    <mxGeometry relative="1" as="geometry"/>
                </mxCell>
                <mxCell id="50" value="设置工单模板" style="ellipse;whiteSpace=wrap;html=1;" vertex="1" parent="1">
                    <mxGeometry x="420" y="130" width="100" height="50" as="geometry"/>
                </mxCell>
            </root>
        </mxGraphModel>
    </diagram>
</mxfile>